<?xml version="1.0" encoding="UTF-8"?>
<svg xmlns="http://www.w3.org/2000/svg" id="Layer_2" data-name="Layer 2" viewBox="0 0 288.96 63.75">
  <g id="Layer_1-2" data-name="Layer 1">
    <g>
      <g>
        <rect x="86.62" y="20.27" width="6.17" height="30.16" fill="#003e7e" stroke-width="0"></rect>
        <polygon points="122.11 40.41 106.54 20.27 100.37 20.27 100.37 50.43 106.54 50.43 106.54 30.29 122.11 50.43 128.28 50.43 128.28 20.27 122.11 20.27 122.11 40.41" fill="#003e7e" stroke-width="0"></polygon>
        <path d="M150.2,20.27h-14.34v30.16h14.34c8.33,0,15.08-6.75,15.08-15.08s-6.75-15.08-15.08-15.08ZM150.2,44.26h-8.17v-17.81h8.17c4.92,0,8.91,3.99,8.91,8.91s-3.99,8.91-8.91,8.91Z" fill="#003e7e" stroke-width="0"></path>
        <polygon points="188.8 43.83 177.79 20.27 171.62 20.27 171.62 50.43 177.79 50.43 177.79 33.48 185.72 50.43 191.89 50.43 199.82 33.48 199.82 50.43 205.99 50.43 205.99 20.27 199.82 20.27 188.8 43.83" fill="#003e7e" stroke-width="0"></polygon>
        <rect x="213.7" y="20.27" width="6.17" height="30.16" fill="#003e7e" stroke-width="0"></rect>
        <polygon points="288.96 50.43 275.42 20.27 269.25 20.27 255.71 50.43 261.88 50.43 272.33 27.15 282.78 50.43 288.96 50.43" fill="#003e7e" stroke-width="0"></polygon>
        <path d="M252.56,31.74c0-6.33-5.13-11.46-11.46-11.46h-8.04s-6.17,0-6.17,0v30.16h6.17v-23.98h8.03c1.46,0,2.79.6,3.74,1.55.95.95,1.55,2.28,1.55,3.74,0,2.92-2.37,5.29-5.29,5.29h-3.96l4.17,6.17,4.89,7.23h6.17l-5.81-8.6c3.59-1.94,6.02-5.72,6.02-10.09Z" fill="#003e7e" stroke-width="0"></path>
      </g>
      <g>
        <path d="M75.19,50.69s-2.67-19.6-18.27-19.6-17.02,13.15-15.71,15.18,3.51,2.65,8-1.43,10.54-5.15,14.95-2.86,11.03,8.71,11.03,8.71Z" fill="#003e7e" stroke-width="0"></path>
        <path d="M33.13,47.25c-1.37,1.12-3.52.91-7.16-2.41-4.5-4.08-10.54-5.14-14.95-2.86-4.41,2.29-11.03,8.71-11.03,8.71,0,0,2.67-19.6,18.27-19.6,3.32,0,5.99.6,8.13,1.55.47.21.91.43,1.33.68,0,5.31,1.61,8.98,3.08,11.21.68.92,1.45,1.83,2.31,2.71Z" fill="#003e7e" stroke-width="0"></path>
        <path d="M48.23,32.9s.9-7.17-1.87-15.02c-2.78-7.84-4.33-14.87-3.92-17.89,0,0-6.78,7.43-7.43,9.39s10.5,13.54,11.03,16.5,2.2,7.01,2.2,7.01Z" fill="#003e7e" stroke-width="0"></path>
        <path d="M50.22,48.71l-.26,2.98c-.44,5.02-4.64,8.87-9.68,8.87h-6.08c-5.04,0-9.24-3.85-9.68-8.87l-.26-2.98c-.07-.83-.76-1.46-1.6-1.46h0c-.93,0-1.66.79-1.6,1.71l.17,2.37c.49,6.99,6.31,12.41,13.31,12.41h5.37c7.01,0,12.82-5.42,13.31-12.41l.17-2.37c.06-.93-.67-1.71-1.6-1.71h0c-.83,0-1.52.64-1.6,1.46Z" fill="#003e7e" stroke-width="0"></path>
        <path d="M30.82,44.53c.68.92,1.45,1.83,2.31,2.71,0,0-1.11-.86-2.31-2.71Z" fill="#003e7e" stroke-width="0"></path>
        <path d="M48.23,32.9c-4.33-11.86-9.64-14.12-9.64-14.12-.4,4.08-10.86,4.82-10.86,14.53,0,5.31,1.61,8.98,3.08,11.21-2.85-3.86-4.11-8-4.41-11.89-.52-6.79,1.89-12.88,3.95-15.66,3.51-4.74,2.78-11.76,2.78-11.76,15.27,14.5,15.11,27.68,15.11,27.68Z" fill="#003e7e" stroke-width="0"></path>
      </g>
    </g>
  </g>
</svg>
