<svg width="582" height="132" viewBox="0 0 582 132" fill="none" xmlns="http://www.w3.org/2000/svg">
<path d="M64.1261 37.2196V0.301758H44.4082V57.0536H64.1261V37.2196Z" fill="#024CCE"/>
<path d="M71.6623 90.7285C56.1702 102.009 32.8991 94.8614 26.1417 77.335L13.3709 83.335L1.28125 77.6544C9.50784 115.547 55.2327 132.731 86.3666 109.545L81.9864 95.0654L71.6623 90.7285Z" fill="#024CCE"/>
<path d="M97.7858 98.2338C119.123 70.2715 107.359 28.5092 74.707 15.5312V43.3225C85.3349 52.276 87.9578 70.3232 79.9939 82.0002L91.2518 86.7303L95.5799 101.03C96.3626 100.138 97.0711 99.1828 97.7858 98.2338Z" fill="#024CCE"/>
<path d="M23.8655 65.9484C23.7975 57.0055 27.691 48.9341 33.8265 43.3513V15.5312C14.1547 23.3869 0.145308 43.3618 0.00195312 64.5982L13.3694 70.8774L23.8655 65.9484Z" fill="#024CCE"/>
<path d="M140.295 96.1201V52.8756H147.81V64.6251L147.074 61.6879C148.271 58.6968 150.287 56.412 153.118 54.8338C155.949 53.2566 159.434 52.4678 163.573 52.4678V60.0559C163.246 60.0021 162.933 59.9742 162.634 59.9742H161.776C157.582 59.9742 154.262 61.2262 151.812 63.7277C149.361 66.2302 148.136 69.8472 148.136 74.5793V96.1201H140.295Z" fill="#024CCE"/>
<path d="M192.079 96.6096C187.45 96.6096 183.38 95.6584 179.868 93.7541C176.356 91.8507 173.632 89.2396 171.701 85.9209C169.767 82.6037 168.801 78.7954 168.801 74.4976C168.801 70.2013 169.74 66.393 171.619 63.0748C173.497 59.7576 176.083 57.159 179.378 55.2825C182.672 53.406 186.388 52.4678 190.527 52.4678C194.719 52.4678 198.422 53.393 201.635 55.2416C204.847 57.0917 207.365 59.6884 209.19 63.034C211.014 66.3791 211.926 70.283 211.926 74.7426C211.926 75.0688 211.912 75.4503 211.886 75.8851C211.858 76.3208 211.817 76.7287 211.763 77.1087H174.927V71.4787H207.679L204.494 73.4369C204.547 70.663 203.976 68.1884 202.779 66.0121C201.58 63.8373 199.933 62.1366 197.837 60.9125C195.74 59.6884 193.304 59.0768 190.527 59.0768C187.804 59.0768 185.381 59.6884 183.258 60.9125C181.134 62.1366 179.472 63.8497 178.276 66.0529C177.077 68.2561 176.478 70.7725 176.478 73.6002V74.906C176.478 77.7894 177.145 80.3596 178.479 82.6161C179.813 84.8741 181.678 86.6286 184.074 87.8791C186.47 89.1311 189.22 89.7556 192.324 89.7556C194.883 89.7556 197.21 89.3213 199.307 88.4503C201.403 87.5807 203.24 86.2755 204.821 84.5339L209.149 89.5927C207.189 91.8771 204.751 93.6186 201.839 94.8148C198.926 96.0115 195.673 96.6096 192.079 96.6096Z" fill="#024CCE"/>
<path d="M222.787 96.1194V35.5771H230.628V96.1194H222.787ZM229.158 85.6752L229.322 75.6393L254.233 52.8749H263.707L244.595 71.6414L240.348 75.2315L229.158 85.6752ZM255.867 96.1194L238.878 75.0681L243.942 68.7858L265.504 96.1194H255.867Z" fill="#024CCE"/>
<path d="M289.846 96.6096C285.543 96.6096 281.691 95.6584 278.289 93.7541C274.885 91.8507 272.204 89.2257 270.243 85.8801C268.283 82.535 267.303 78.7406 267.303 74.4976C267.303 70.2013 268.283 66.4075 270.243 63.1156C272.204 59.8248 274.871 57.2282 278.248 55.3233C281.623 53.4199 285.489 52.4678 289.846 52.4678C294.146 52.4678 297.999 53.406 301.403 55.2825C304.805 57.159 307.474 59.7576 309.407 63.0748C311.34 66.393 312.307 70.2013 312.307 74.4976C312.307 78.7954 311.34 82.6037 309.407 85.9209C307.474 89.2396 304.805 91.8507 301.403 93.7541C297.999 95.6584 294.146 96.6096 289.846 96.6096ZM289.846 89.7556C292.623 89.7556 295.114 89.1311 297.319 87.8791C299.524 86.6286 301.252 84.8472 302.505 82.535C303.758 80.2232 304.384 77.5449 304.384 74.4976C304.384 71.397 303.758 68.7187 302.505 66.4608C301.252 64.2043 299.524 62.4498 297.319 61.1978C295.114 59.9473 292.623 59.3213 289.846 59.3213C287.069 59.3213 284.59 59.9473 282.413 61.1978C280.235 62.4498 278.492 64.2043 277.186 66.4608C275.879 68.7187 275.226 71.397 275.226 74.4976C275.226 77.5449 275.879 80.2232 277.186 82.535C278.492 84.8472 280.235 86.6286 282.413 87.8791C284.59 89.1311 287.069 89.7556 289.846 89.7556Z" fill="#024CCE"/>
<path d="M335.583 96.6096C331.989 96.6096 328.571 96.1201 325.332 95.141C322.092 94.1619 319.546 92.9662 317.695 91.5509L320.963 85.3497C322.813 86.6017 325.1 87.6624 327.823 88.532C330.546 89.4025 333.322 89.8372 336.154 89.8372C339.801 89.8372 342.43 89.3213 344.036 88.2869C345.642 87.2546 346.446 85.8123 346.446 83.9627C346.446 82.6037 345.956 81.5429 344.976 80.7805C343.995 80.0195 342.701 79.4483 341.096 79.0668C339.489 78.6873 337.706 78.3467 335.746 78.0469C333.786 77.7486 331.825 77.3676 329.865 76.905C327.905 76.4433 326.108 75.7904 324.475 74.9468C322.841 74.1037 321.534 72.9349 320.554 71.4378C319.574 69.9428 319.084 67.9433 319.084 65.4408C319.084 62.8298 319.819 60.5454 321.289 58.5873C322.759 56.6286 324.842 55.1191 327.538 54.0584C330.233 52.9981 333.431 52.4678 337.134 52.4678C339.965 52.4678 342.838 52.8079 345.751 53.4877C348.664 54.1685 351.047 55.1336 352.898 56.3841L349.549 62.5853C347.589 61.2795 345.547 60.3821 343.424 59.8925C341.3 59.403 339.176 59.158 337.053 59.158C333.622 59.158 331.063 59.7168 329.375 60.8308C327.687 61.9463 326.843 63.3741 326.843 65.1147C326.843 66.5833 327.346 67.7128 328.354 68.5006C329.361 69.2899 330.668 69.902 332.275 70.3368C333.88 70.7725 335.664 71.1395 337.624 71.4378C339.585 71.7376 341.545 72.1186 343.505 72.5803C345.466 73.0429 347.248 73.6819 348.855 74.4976C350.461 75.3138 351.767 76.4563 352.775 77.9249C353.782 79.3935 354.286 81.3517 354.286 83.7994C354.286 86.4105 353.524 88.6684 352 90.5718C350.475 92.4767 348.324 93.9577 345.547 95.0185C342.77 96.0793 339.448 96.6096 335.583 96.6096Z" fill="#024CCE"/>
<path d="M368.01 44.5517C366.485 44.5517 365.219 44.0622 364.212 43.0831C363.204 42.104 362.701 40.9083 362.701 39.4929C362.701 38.0243 363.204 36.8002 364.212 35.8212C365.219 34.8421 366.485 34.3525 368.01 34.3525C369.534 34.3525 370.8 34.8296 371.808 35.7803C372.815 36.733 373.319 37.9158 373.319 39.3296C373.319 40.7982 372.829 42.0363 371.849 43.0422C370.869 44.0492 369.589 44.5517 368.01 44.5517ZM364.09 96.1189V52.8744H371.931V96.1189H364.09Z" fill="#024CCE"/>
<path d="M399.292 96.6096C395.698 96.6096 392.28 96.1201 389.041 95.141C385.801 94.1619 383.255 92.9662 381.404 91.5509L384.672 85.3497C386.522 86.6017 388.809 87.6624 391.532 88.532C394.255 89.4025 397.031 89.8372 399.863 89.8372C403.51 89.8372 406.139 89.3213 407.745 88.2869C409.351 87.2546 410.155 85.8123 410.155 83.9627C410.155 82.6037 409.665 81.5429 408.685 80.7805C407.704 80.0195 406.41 79.4483 404.805 79.0668C403.198 78.6873 401.415 78.3467 399.455 78.0469C397.495 77.7486 395.534 77.3676 393.574 76.905C391.614 76.4433 389.817 75.7904 388.184 74.9468C386.55 74.1037 385.243 72.9349 384.263 71.4378C383.283 69.9428 382.793 67.9433 382.793 65.4408C382.793 62.8298 383.528 60.5454 384.998 58.5873C386.468 56.6286 388.551 55.1191 391.247 54.0584C393.942 52.9981 397.14 52.4678 400.843 52.4678C403.674 52.4678 406.547 52.8079 409.46 53.4877C412.373 54.1685 414.756 55.1336 416.607 56.3841L413.258 62.5853C411.298 61.2795 409.256 60.3821 407.133 59.8925C405.009 59.403 402.885 59.158 400.762 59.158C397.331 59.158 394.771 59.7168 393.084 60.8308C391.396 61.9463 390.552 63.3741 390.552 65.1147C390.552 66.5833 391.055 67.7128 392.063 68.5006C393.07 69.2899 394.377 69.902 395.984 70.3368C397.589 70.7725 399.373 71.1395 401.333 71.4378C403.294 71.7376 405.254 72.1186 407.214 72.5803C409.175 73.0429 410.957 73.6819 412.564 74.4976C414.17 75.3138 415.476 76.4563 416.484 77.9249C417.491 79.3935 417.995 81.3517 417.995 83.7994C417.995 86.4105 417.233 88.6684 415.709 90.5718C414.184 92.4767 412.033 93.9577 409.256 95.0185C406.479 96.0793 403.157 96.6096 399.292 96.6096Z" fill="#024CCE"/>
<path d="M421.588 59.3191V52.8733H449.195V59.3191H421.588ZM442.66 96.6074C438.303 96.6074 434.928 95.4385 432.532 93.0989C430.135 90.7607 428.938 87.4151 428.938 83.063V43.4082H436.78V82.7363C436.78 85.076 437.364 86.8708 438.535 88.1218C439.706 89.3738 441.38 89.9983 443.559 89.9983C446.009 89.9983 448.051 89.319 449.685 87.9584L452.135 93.5884C450.937 94.6223 449.507 95.3832 447.847 95.8728C446.185 96.3628 444.457 96.6074 442.66 96.6074Z" fill="#024CCE"/>
<path d="M479.417 96.6096C474.788 96.6096 470.718 95.6584 467.206 93.7541C463.694 91.8507 460.97 89.2396 459.039 85.9209C457.105 82.6037 456.139 78.7954 456.139 74.4976C456.139 70.2013 457.078 66.393 458.957 63.0748C460.835 59.7576 463.421 57.159 466.716 55.2825C470.01 53.406 473.726 52.4678 477.865 52.4678C482.057 52.4678 485.759 53.393 488.973 55.2416C492.185 57.0917 494.703 59.6884 496.528 63.034C498.352 66.3791 499.264 70.283 499.264 74.7426C499.264 75.0688 499.25 75.4503 499.223 75.8851C499.195 76.3208 499.155 76.7287 499.101 77.1087H462.264V71.4787H495.017L491.831 73.4369C491.885 70.663 491.313 68.1884 490.117 66.0121C488.918 63.8373 487.271 62.1366 485.175 60.9125C483.078 59.6884 480.642 59.0768 477.865 59.0768C475.142 59.0768 472.719 59.6884 470.596 60.9125C468.472 62.1366 466.81 63.8497 465.613 66.0529C464.415 68.2561 463.816 70.7725 463.816 73.6002V74.906C463.816 77.7894 464.483 80.3596 465.817 82.6161C467.151 84.8741 469.016 86.6286 471.412 87.8791C473.808 89.1311 476.558 89.7556 479.662 89.7556C482.221 89.7556 484.548 89.3213 486.645 88.4503C488.741 87.5807 490.578 86.2755 492.158 84.5339L496.487 89.5927C494.527 91.8771 492.089 93.6186 489.177 94.8148C486.263 96.0115 483.011 96.6096 479.417 96.6096Z" fill="#024CCE"/>
<path d="M564.279 52.4678C567.763 52.4678 570.84 53.1485 573.508 54.5076C576.176 55.8677 578.259 57.9344 579.757 60.7083C581.254 63.4827 582.003 66.9911 582.003 71.2342V96.1201H574.162V72.1316C574.162 67.9433 573.182 64.7879 571.222 62.6669C569.261 60.5454 566.511 59.4847 562.972 59.4847C560.358 59.4847 558.072 60.029 556.111 61.1167C554.151 62.2053 552.64 63.8089 551.578 65.9304C550.516 68.0519 549.985 70.6908 549.985 73.8452V96.1201H542.145V72.1316C542.145 67.9433 541.177 64.7879 539.245 62.6669C537.311 60.5454 534.549 59.4847 530.955 59.4847C528.395 59.4847 526.136 60.029 524.176 61.1167C522.215 62.2053 520.69 63.8089 519.602 65.9304C518.512 68.0519 517.968 70.6908 517.968 73.8452V96.1201H510.127V52.8756H517.642V64.3801L516.416 61.4429C517.777 58.6152 519.873 56.412 522.705 54.8338C525.536 53.2566 528.831 52.4678 532.588 52.4678C536.726 52.4678 540.293 53.4877 543.288 55.5275C546.282 57.5673 548.242 60.655 549.169 64.788L545.983 63.4827C547.29 60.1654 549.577 57.4996 552.844 55.4867C556.111 53.4747 559.922 52.4678 564.279 52.4678Z" fill="#024CCE"/>
</svg>
